<?xml version="1.0" encoding="UTF-8"?>
<svg id="Layer_1" xmlns="http://www.w3.org/2000/svg" version="1.1" viewBox="0 0 512 512">
  <!-- Generator: Adobe Illustrator 29.6.1, SVG Export Plug-In . SVG Version: 2.1.1 Build 9)  -->
  <defs>
    <style>
      .st0 {
        fill: #f8feff;
      }
    </style>
  </defs>
  <path class="st0" d="M231.7,377.6c9.7,9,24.9,8.4,33.9-1.2,9-9.7,8.5-24.9-1.2-33.9l-67.3-62.4h170.9c13.2,0,24-10.8,24-24s-10.8-24-24-24h-170.9l67.2-62.4c9.7-9.1,10.2-24.2,1.2-33.9-9-9.7-24.2-10.2-33.9-1.2l-112,104c-4.8,4.6-7.6,10.9-7.6,17.6s2.8,13,7.7,17.6l112,103.8ZM256,512c141.4,0,256-114.6,256-256S397.4,0,256,0,0,114.6,0,256s114.6,256,256,256ZM256,48c114.7,0,208,93.3,208,208s-93.3,208-208,208S48,370.7,48,256,141.3,48,256,48Z"/>
</svg>