<?xml version="1.0" encoding="utf-8"?>
<!-- Generator: Adobe Illustrator 27.9.0, SVG Export Plug-In . SVG Version: 6.00 Build 0)  -->
<svg version="1.1" id="Layer_1" xmlns="http://www.w3.org/2000/svg" xmlns:xlink="http://www.w3.org/1999/xlink" x="0px" y="0px"
	 viewBox="0 0 1024 1024" style="enable-background:new 0 0 1024 1024;" xml:space="preserve">
<g>
	<path d="M512,47C255.6,47,47,255.6,47,512c0,256.4,208.6,465,465,465c256.4,0,465-208.6,465-465C977,255.6,768.4,47,512,47z
		 M512,918.5c-224.1,0-406.5-182.3-406.5-406.5c0-224.1,182.3-406.5,406.5-406.5c224.1,0,406.5,182.3,406.5,406.5
		C918.5,736.1,736.1,918.5,512,918.5z"/>
	<path d="M512,162.4c-191.4,0-347.2,156.8-347.2,349.6c0,192.8,155.7,349.6,347.2,349.6c191.4,0,347.2-156.8,347.2-349.6
		C859.2,319.2,703.4,162.4,512,162.4z M674.4,740.7l-59-0.1c5.8-39.8-7.1-69-25-98.9c-18.6-31.1-43.6-58.8-74.7-80.7
		c-1.7,8.9-3.3,17.6-5,26.1c-4.1,21.1-11.5,52.9-27.8,82.6c-19.7,36-49.1,58.8-87.4,67.7c-8.7,2-17.9,3.1-27.3,3.1
		c-24.9,0-50.5-7.2-72-20.4c-23.9-14.6-42.1-35.9-52.6-61.5c-16.5-40.2-10.1-76.7-1.8-100.3c10.3-29.4,27.3-51,39.8-61.5
		c12.5-10.5,26.4-18.9,41.4-25.1c14.8-6.1,30.8-10,47.5-11.7c32-3.2,64.2,1.1,99.3,14.1c8.9-55,25.1-167.2,27.5-182.9h59.2
		c-2.3,15.4-22.4,146.6-31.3,209.6c36.2,21.7,68.6,50.1,94,82.8c5.8,7.5,11.2,15.1,16.2,22.8l47.6-315.2h58.8L674.4,740.7z"/>
	<path d="M350.7,522.1c-12,4.1-22.9,10.2-32.4,18.1c-6.6,5.5-16.4,19-22.4,35.6c-5.3,14.7-9.5,37.2,0.3,61.3
		c6.9,16.9,20.3,30.7,37.7,38.9c15.8,7.5,33.6,9.7,48.7,6.2c22-5.1,38.3-17.8,49.9-38.6c10.8-19.3,16.5-43.7,21.1-67.3
		c2.8-14.5,5.6-29.3,8.3-44.2c-25.3-10.6-49.7-16-72.4-16C375.7,516,362.6,518.1,350.7,522.1z"/>
</g>
</svg>
